<?xml version="1.0" encoding="UTF-8"?>
<!DOCTYPE svg PUBLIC "-//W3C//DTD SVG 1.1//EN" "http://www.w3.org/Graphics/SVG/1.1/DTD/svg11.dtd">
<!-- Creator: CorelDRAW 2021 (64 Bit) -->
<svg xmlns="http://www.w3.org/2000/svg" xml:space="preserve" width="26.376mm" height="7.4524mm" version="1.1" style="shape-rendering:geometricPrecision; text-rendering:geometricPrecision; image-rendering:optimizeQuality; fill-rule:evenodd; clip-rule:evenodd"
viewBox="0 0 426.82 120.6"
 xmlns:xlink="http://www.w3.org/1999/xlink"
 xmlns:xodm="http://www.corel.com/coreldraw/odm/2003">
 <defs>
  <style type="text/css">
   <![CDATA[
    .fil3 {fill:black}
    .fil2 {fill:#FCA311}
    .fil0 {fill:#FEFEFE;fill-rule:nonzero}
    .fil1 {fill:#FCA311;fill-rule:nonzero}
   ]]>
  </style>
 </defs>
 <g id="Camada_x0020_1">
  <metadata id="CorelCorpID_0Corel-Layer"/>
  <path class="fil0" d="M426.82 97.47c0,4.82 -1.01,8.96 -3.04,12.44 -2.02,3.48 -4.91,6.14 -8.67,7.96 -3.73,1.81 -8.17,2.73 -13.29,2.73 -4.38,0 -8.32,-0.79 -11.84,-2.34 -3.51,-1.57 -6.39,-3.93 -8.63,-7.04 -2.25,-3.1 -3.66,-6.9 -4.26,-11.4l14.15 -1.65c0.43,3.51 1.56,6.17 3.35,7.99 1.81,1.8 4.18,2.7 7.12,2.7 2.08,0 3.89,-0.55 5.45,-1.61 1.56,-1.08 2.76,-2.53 3.59,-4.37 0.82,-1.83 1.25,-3.87 1.25,-6.07 0,-2.1 -0.47,-3.99 -1.36,-5.66 -0.91,-1.67 -2.2,-2.94 -3.87,-3.89 -1.68,-0.94 -3.63,-1.4 -5.87,-1.4l-6.67 0 1.56 -10.8c4.91,0 8.5,-0.8 10.76,-2.44 2.26,-1.63 3.4,-3.99 3.4,-7.11 0,-2.44 -0.77,-4.38 -2.32,-5.84 -1.54,-1.45 -3.62,-2.17 -6.22,-2.17 -2.69,0 -4.9,0.88 -6.63,2.62 -1.74,1.76 -2.79,4.14 -3.17,7.16l-13.55 -2.32c1.33,-6.42 4.05,-11.24 8.08,-14.42 4.05,-3.21 9.26,-4.79 15.6,-4.79 4.53,0 8.48,0.8 11.9,2.44 3.41,1.63 6.03,3.87 7.87,6.74 1.85,2.86 2.77,6.11 2.77,9.76 0,3.37 -0.96,6.42 -2.86,9.15 -1.92,2.73 -4.86,4.86 -8.84,6.41 4.49,0.89 7.96,2.89 10.47,5.99 2.49,3.1 3.73,6.83 3.73,11.22l0.01 0 0.02 0z"/>
  <path class="fil1" d="M322.8 117.11c-0.84,-0.41 -1.67,-0.84 -2.46,-1.32l-0.58 -0.36c0.74,-0.61 1.46,-1.26 2.16,-1.98 0.25,1.36 0.54,2.57 0.88,3.65l0 0 -0 0.01z"/>
  <path class="fil0" d="M334.45 107.29c1.6,0.37 3.31,0.55 5.15,0.55 3.1,0 6.18,-0.46 9.2,-1.4 3.04,-0.94 5.63,-2.29 7.81,-4.06l0 -10.09 -17.16 0 0 -12.45 31.97 0 0 29.31c-2.25,2.14 -5.06,4.1 -8.43,5.82 -3.37,1.74 -7.1,3.12 -11.12,4.11 -4.02,1.01 -8.11,1.51 -12.21,1.51 -3.83,0 -7.39,-0.42 -10.66,-1.25l8.56 0c-1.36,-2.81 -2.19,-5.07 -2.57,-6.79 -0.3,-1.44 -0.49,-3.21 -0.53,-5.27l0 0 0 0z"/>
  <path class="fil1" d="M0.01 82.96c0,-7.76 1.45,-14.53 4.38,-20.31 2.93,-5.78 7.11,-10.24 12.53,-13.39 5.43,-3.17 11.76,-4.74 18.98,-4.74 7.25,0 13.58,1.57 19.01,4.71 5.42,3.15 9.59,7.61 12.54,13.34 2.94,5.75 4.42,12.45 4.42,20.08 0,7.43 -1.44,14.02 -4.34,19.76 -2.89,5.74 -7.04,10.21 -12.42,13.4 -5.39,3.21 -11.73,4.79 -19.04,4.79 -7.3,0 -13.68,-1.57 -19.12,-4.74 -5.45,-3.15 -9.64,-7.59 -12.57,-13.29 -2.93,-5.7 -4.38,-12.24 -4.38,-19.6l0 0 0.01 -0zm35.89 -25.7c-4.24,0 -7.88,1.08 -10.98,3.23 -3.09,2.16 -5.45,5.14 -7.1,8.96 -1.65,3.82 -2.46,8.17 -2.46,13.1 0,4.91 0.8,9.27 2.41,13.09 1.61,3.82 3.95,6.8 7.07,8.96 3.12,2.16 6.82,3.23 11.13,3.23 4.25,0 7.93,-1.07 11.01,-3.21 3.1,-2.14 5.46,-5.14 7.1,-8.99 1.61,-3.84 2.44,-8.27 2.44,-13.29 0,-4.82 -0.82,-9.13 -2.44,-12.93 -1.63,-3.78 -3.99,-6.76 -7.1,-8.92 -3.09,-2.16 -6.79,-3.23 -11.1,-3.23l0 0 0 0.01zm69.16 -1.96c-1.4,0 -2.52,0.22 -3.33,0.7 -0.79,0.47 -1.39,1.27 -1.74,2.4 -0.37,1.15 -0.55,2.74 -0.55,4.83l0 2.86 10.28 0 0 11.18 -10.28 0 0 42.06 -14.11 0 0 -42.06 -7.77 0 0 -11.18 7.77 0 0 -3.27c0,-3.61 0.43,-6.72 1.28,-9.35 0.85,-2.64 2.56,-4.78 5.07,-6.46 2.52,-1.67 6.17,-2.5 10.92,-2.5 1.74,0 3.78,0.17 6.15,0.49 2.37,0.34 4.24,0.68 5.61,1.07l-2.68 10.48c-1.13,-0.41 -2.29,-0.72 -3.51,-0.92 -1.2,-0.23 -2.22,-0.32 -3.1,-0.32l0 0 -0.01 0zm12.44 3.51l0 -13.05 14.1 0 0 13.05 -14.1 0zm0 60.52l0 -53.25 14.1 0 0 53.25 -14.1 0zm50.35 -43.21c-3.65,0 -6.44,1.45 -8.37,4.38 -1.93,2.93 -2.92,7 -2.92,12.21 0,4.89 0.97,8.83 2.92,11.82 1.93,2.99 4.82,4.49 8.63,4.49 2.64,0 4.82,-0.88 6.55,-2.62 1.73,-1.77 2.86,-4.29 3.39,-7.55l13.85 2.4c-1.48,6.56 -4.24,11.42 -8.29,14.58 -4.07,3.17 -9.47,4.74 -16.19,4.74 -5.46,0 -10.09,-1.21 -13.88,-3.64 -3.81,-2.44 -6.67,-5.74 -8.56,-9.93 -1.9,-4.19 -2.86,-8.97 -2.86,-14.34 0,-5.51 1,-10.36 2.97,-14.54 1.97,-4.18 4.89,-7.43 8.74,-9.76 3.83,-2.33 8.5,-3.5 13.94,-3.5 6.1,0 11.16,1.4 15.15,4.22 4.01,2.81 6.75,7.12 8.23,12.95l-13.79 2.52c-0.56,-2.74 -1.67,-4.85 -3.29,-6.27 -1.63,-1.44 -3.69,-2.16 -6.2,-2.16l0 0 -0.03 0zm34.27 43.21l0 -53.25 14.1 0 0 53.25 -14.1 0zm61.44 -33.27c0,-3.42 -0.64,-5.99 -1.9,-7.76 -1.27,-1.77 -3.39,-2.64 -6.38,-2.64 -3.24,0 -5.9,1.17 -7.95,3.5 -2.05,2.32 -3.06,5.87 -3.05,10.65l0 29.52 -14.1 0 0 -53.25 13.16 0 0 6.98c1.9,-2.68 4.25,-4.71 7.02,-6.1 2.77,-1.38 5.85,-2.09 9.19,-2.09 5.86,0 10.35,1.57 13.45,4.7 3.12,3.13 4.68,7.52 4.68,13.17l0 36.59 -14.11 0 0 -33.27 -0.01 -0.01 -0.01 0.01zm73.99 33.27l-13.91 0c-0.7,-1.54 -1.27,-3.5 -1.72,-5.87 -4.71,4.76 -10.23,7.12 -16.55,7.12 -3.48,0 -6.54,-0.67 -9.17,-2 -2.65,-1.33 -4.7,-3.22 -6.14,-5.66 -1.44,-2.41 -2.16,-5.19 -2.16,-8.29 0,-4.73 1.54,-8.48 4.62,-11.25 3.06,-2.77 7.83,-4.66 14.25,-5.67 6.42,-1 10.93,-1.97 13.55,-2.92l0 -1c0,-3.12 -0.77,-5.25 -2.29,-6.41 -1.52,-1.15 -3.77,-1.73 -6.75,-1.73 -2.33,0 -4.3,0.53 -5.86,1.61 -1.57,1.07 -2.77,2.76 -3.57,5.07l-12.85 -1.96c1.4,-5.36 4.01,-9.28 7.83,-11.77 3.81,-2.5 8.91,-3.75 15.3,-3.75 5.19,0 9.4,0.67 12.68,1.98 3.25,1.32 5.67,3.42 7.25,6.3 1.57,2.88 2.37,6.63 2.37,11.29l0 21.72c0,2.56 0.19,4.68 0.55,6.38 0.37,1.72 1.21,3.97 2.57,6.79l-0.01 0.01 0 0zm-28.01 -22.84c-5.02,1.01 -7.54,3.45 -7.54,7.34 0,2.17 0.61,3.84 1.87,5.02 1.24,1.17 3.01,1.74 5.31,1.74 2.32,0 4.44,-0.58 6.38,-1.74 1.33,-0.8 2.34,-1.65 2.99,-2.53 0.65,-0.89 1.12,-2.09 1.37,-3.59 0.28,-1.51 0.41,-3.62 0.41,-6.32l0 -2.56c-2.49,0.89 -6.09,1.78 -10.8,2.65l0 0 0.01 -0.01z"/>
  <g id="_2710856668880">
   <path class="fil2" d="M215.75 45.88c3.77,0 6.74,-0.65 9.8,-2.33 2.33,-1.28 4.65,-4.38 5.24,-6.89 0.48,0.32 4.78,5.86 5.63,6.89l5.55 6.98c0.43,0.72 0.16,2.53 0.16,3.53l-3.53 0.95c-5.5,1.39 -16.91,3.41 -22.76,4.26 -4.61,0.67 -4.84,0.59 -9.57,-0.2l-15.84 -2.75c-10.24,-1.71 -20.93,-3.94 -31.15,-5.76l-24.62 -4.65c-1.06,-0.17 -1.01,-0.01 -1.24,-0.35 -0.23,-0.34 -0.6,-4.78 -0.6,-5.6 0,-1.72 0.25,-3.36 0.71,-4.96 0.2,-0.7 0.31,-1.24 0.73,-1.24l35.46 0c0.94,0 16.3,5.45 19,6.32 0.96,0.3 1.84,0.61 2.81,0.88 7.7,2.19 16.02,4.94 24.2,4.94l0.02 -0.02z"/>
   <path class="fil2" d="M296.56 51.68l-18.99 0.13c-2.28,0 -4.1,0.13 -6.33,0.13 -4.37,0 -8.37,0.13 -12.66,0.13 -4.32,0 -8.41,0.26 -12.66,0.26 0.71,-0.62 1.62,-0.91 -1.8,-2.94 -1.73,-1.02 -3.42,-2.05 -4.96,-3.34 -0.29,-0.24 -0.37,-0.25 -0.66,-0.53 -7.01,-6.73 9.67,-12.33 13.61,-13.76l10.78 -3.97c0.54,-0.22 0.99,-0.38 1.54,-0.58 2.64,-0.89 13.87,-5.25 15.46,-5.64 10.56,-2.64 13.79,3.42 14.8,13.39 0.08,0.84 0.07,1.6 0.19,2.45 0.45,3.35 0.52,8.67 1.25,11.92 0.16,0.68 0.42,1.61 0.42,2.34l0.01 -0z"/>
   <path class="fil2" d="M338.88 31.51c-1.02,-0.08 -6.22,-2.64 -7.16,-3.12 -2.64,-1.32 -5.78,-3.09 -8.11,-4.8 -2.1,-1.55 -2.35,-1.73 -4.2,-3.58 -0.96,-0.96 -1.56,-1.66 -2.31,-2.83 -1.57,-2.5 -1.85,-5.42 -0.07,-7.9 0.7,-0.97 1.52,-1.68 2.44,-2.44 0.47,-0.38 0.86,-0.62 1.44,-0.94 1.28,-0.7 0.79,-0.58 2.33,-1.24 4.71,-2 6.83,-2.63 12.01,-3.67 1.38,-0.28 5.04,-0.99 6.27,-0.99l-2.64 31.51 -0 0z"/>
  </g>
  <path class="fil3" d="M159.14 92.84c0,-2.06 0.36,-3.72 1.44,-5.31 3.81,-5.52 11.44,-4.19 13.75,1.36 2.89,6.98 -3.29,14.16 -10.27,11.4 -2.67,-1.06 -4.92,-4.28 -4.92,-7.45l0 -0z"/>
  <polygon class="fil3" points="189.39,66.96 189.53,66.96 189.42,67.12 "/>
  <polygon class="fil3" points="326.49,66.83 326.22,66.99 "/>
  <polygon class="fil3" points="189.13,114.42 189.38,114.27 "/>
  <path class="fil0" d="M322.73 66.16c-2.92,-0.84 -6.45,-1.27 -10.59,-1.27 -1.79,0 -4.19,0.19 -5.78,0.38 4.6,-15.24 16.38,-20.52 31.44,-20.05 6.03,0.19 14.1,2.57 19.36,5.01 3.35,1.55 8.31,4.6 11.11,7.24l2 1.89 -2.7 5.82c-2.93,-1.92 -6.12,-3.47 -9.41,-4.45 -9.85,-2.96 -29.11,-3.72 -35.43,5.44l0 0z"/>
  <path class="fil3" d="M323.09 44.29c0.86,1.83 6.14,9.93 7.7,12.71 0.08,0.16 0.19,0.35 0.24,0.42l0.34 0.37 2.5 4.18c3.28,5.5 7.25,11.8 11.17,18.36 0.25,0.42 0.46,0.77 0.7,1.14 0.2,0.31 0.55,0.8 0.66,1.19 1.96,0 2.71,-0.25 4.66,0.74 4.06,2.06 5.72,7.43 3.99,11.73 -1.39,3.45 -4.7,5.88 -8.61,5.16 -3.66,-0.67 -6.24,-4.14 -6.5,-7.87 -0.3,-4.44 1.3,-4.54 0.71,-5.57l-6.03 -9.8c-0.4,-0.64 -0.71,-1.18 -1.11,-1.79 -0.38,-0.61 -0.71,-1.18 -1.11,-1.79 -0.38,-0.59 -0.67,-1.13 -1.06,-1.72 -0.4,-0.61 -0.7,-1.17 -1.11,-1.79 -2.34,-3.94 -2.38,-3.82 -5.09,-8.25 -0.32,-0.77 -3.45,-5.7 -4.12,-6.79 -0.61,-1 -3.81,-6.41 -4.29,-6.77l-2.93 -4.86c-0.5,-0.8 -0.96,-1.55 -1.45,-2.38l-2.21 -3.59c-0.26,-0.45 -0.48,-0.76 -0.76,-1.22l-11.96 -19.42c-0.28,-0.25 -0.19,-0.17 -0.65,-0.26 -0.36,-0.07 -0.61,-0.12 -0.89,-0.16l-8.36 -1.52c-6.45,-1.31 -13.39,-2.34 -19.84,-3.63 -2.21,-0.45 -4.45,-0.84 -6.69,-1.21l-25.65 -4.66c-0.66,-0.12 -0.45,0.06 -0.73,-0.32 0.88,0 12.95,-2.19 14.2,-2.41 1.62,-0.29 1.73,-0.46 3.47,-0.11 1.18,0.24 2.35,0.45 3.53,0.68l28.02 5.34c2.41,0.49 4.78,0.89 7.1,1.33l10.4 1.99c2.57,0.42 2.06,0.19 2.78,1.43l18.58 30.47c0.17,0.26 0.23,0.42 0.41,0.68l-0.01 -0.04z"/>
 </g>
</svg>
