<?xml version="1.0" encoding="UTF-8"?>
<!DOCTYPE svg PUBLIC "-//W3C//DTD SVG 1.1//EN" "http://www.w3.org/Graphics/SVG/1.1/DTD/svg11.dtd">
<!-- Creator: CorelDRAW 2021 (64 Bit) -->
<svg xmlns="http://www.w3.org/2000/svg" xml:space="preserve" width="13.2292mm" height="13.2292mm" version="1.1" style="shape-rendering:geometricPrecision; text-rendering:geometricPrecision; image-rendering:optimizeQuality; fill-rule:evenodd; clip-rule:evenodd"
viewBox="0 0 253.75 253.75"
 xmlns:xlink="http://www.w3.org/1999/xlink"
 xmlns:xodm="http://www.corel.com/coreldraw/odm/2003">
 <defs>
  <style type="text/css">
   <![CDATA[
    .fil1 {fill:#FEFEFE;fill-rule:nonzero}
    .fil0 {fill:#FCA311;fill-rule:nonzero}
   ]]>
  </style>
 </defs>
 <g id="Camada_x0020_1">
  <metadata id="CorelCorpID_0Corel-Layer"/>
  <path class="fil0" d="M253.75 126.88c0,-70.07 -56.8,-126.88 -126.88,-126.88 -70.07,0 -126.88,56.8 -126.88,126.88 0,70.07 56.8,126.88 126.88,126.88 70.07,0 126.88,-56.8 126.88,-126.88z"/>
  <path class="fil1" d="M90.82 94.04c-8.29,0 -14.81,2.67 -19.52,8 -4.71,5.36 -7.07,13.25 -7.07,23.73 0,7.03 1.02,13.1 3.05,18.17 2,5.09 5,8.98 8.94,11.7 3.96,2.71 8.76,4.07 14.41,4.07 4.02,0 8.03,-0.6 11.94,-1.82 3.94,-1.22 7.32,-2.98 10.14,-5.27l0 -13.1 -22.28 0 0 -16.17 41.49 0 0 38.05c-2.91,2.78 -6.56,5.32 -10.94,7.56 -4.38,2.27 -9.21,4.05 -14.43,5.34 -5.22,1.31 -10.52,1.96 -15.85,1.96 -9.74,0 -18.08,-2.07 -25.06,-6.23 -6.96,-4.14 -12.25,-9.94 -15.9,-17.41 -3.63,-7.47 -5.43,-16.14 -5.43,-25.99 0,-9.87 1.94,-18.5 5.8,-25.91 3.85,-7.4 9.32,-13.12 16.34,-17.17 7.03,-4.03 15.17,-6.05 24.37,-6.05 10.9,0 19.61,2.33 26.17,7.03 6.56,4.69 11.14,11.7 13.76,20.99l-19.23 3.58c-1.38,-4.91 -3.82,-8.65 -7.29,-11.21 -3.47,-2.56 -7.94,-3.85 -13.41,-3.85zm118.63 52.19c0,6.25 -1.31,11.63 -3.94,16.14 -2.62,4.52 -6.38,7.96 -11.25,10.34 -4.85,2.36 -10.61,3.54 -17.26,3.54 -5.69,0 -10.81,-1.02 -15.36,-3.05 -4.56,-2.04 -8.29,-5.09 -11.21,-9.14 -2.91,-4.02 -4.76,-8.96 -5.54,-14.79l18.37 -2.13c0.56,4.56 2.02,8.01 4.36,10.36 2.36,2.33 5.43,3.51 9.25,3.51 2.69,0 5.05,-0.71 7.07,-2.09 2.02,-1.4 3.58,-3.29 4.67,-5.67 1.07,-2.38 1.62,-5.03 1.62,-7.87 0,-2.73 -0.6,-5.18 -1.76,-7.34 -1.18,-2.16 -2.85,-3.82 -5.03,-5.05 -2.18,-1.22 -4.71,-1.82 -7.63,-1.82l-8.65 0 2.02 -14.01c6.38,0 11.03,-1.05 13.97,-3.16 2.93,-2.11 4.4,-5.18 4.4,-9.23 0,-3.16 -1,-5.69 -3,-7.58 -2,-1.89 -4.69,-2.83 -8.07,-2.83 -3.49,0 -6.36,1.14 -8.61,3.4 -2.27,2.29 -3.62,5.38 -4.11,9.3l-17.59 -3c1.73,-8.34 5.25,-14.59 10.5,-18.72 5.25,-4.16 12.01,-6.23 20.26,-6.23 5.87,0 11.01,1.05 15.45,3.16 4.43,2.11 7.83,5.03 10.21,8.74 2.4,3.71 3.6,7.94 3.6,12.67 0,4.38 -1.24,8.34 -3.71,11.87 -2.49,3.54 -6.32,6.32 -11.47,8.32 5.83,1.16 10.34,3.76 13.59,7.78 3.22,4.02 4.85,8.87 4.85,14.56z"/>
 </g>
</svg>
