<?xml version="1.0" encoding="UTF-8"?>
<!DOCTYPE svg PUBLIC "-//W3C//DTD SVG 1.1//EN" "http://www.w3.org/Graphics/SVG/1.1/DTD/svg11.dtd">
<!-- Creator: CorelDRAW 2021 (64 Bit) -->
<svg xmlns="http://www.w3.org/2000/svg" xml:space="preserve" width="26.3761mm" height="7.4527mm" version="1.1" style="shape-rendering:geometricPrecision; text-rendering:geometricPrecision; image-rendering:optimizeQuality; fill-rule:evenodd; clip-rule:evenodd"
viewBox="0 0 6766.84 1912"
 xmlns:xlink="http://www.w3.org/1999/xlink"
 xmlns:xodm="http://www.corel.com/coreldraw/odm/2003">
 <defs>
  <style type="text/css">
   <![CDATA[
    .fil2 {fill:black}
    .fil3 {fill:#14213D}
    .fil1 {fill:#14213D;fill-rule:nonzero}
    .fil0 {fill:#FCA311;fill-rule:nonzero}
   ]]>
  </style>
 </defs>
 <g id="Camada_x0020_1">
  <metadata id="CorelCorpID_0Corel-Layer"/>
  <path class="fil0" d="M6766.84 1545.29c0,76.32 -16.01,142.05 -48.1,197.19 -32.02,55.13 -77.94,97.21 -137.43,126.3 -59.24,28.79 -129.53,43.15 -210.76,43.15 -69.53,0 -132,-12.52 -187.69,-37.2 -55.67,-24.99 -101.31,-62.19 -136.87,-111.6 -35.58,-49.18 -58.08,-109.45 -67.6,-180.59l224.35 -26.07c6.8,55.67 24.73,97.77 53.21,126.53 28.84,28.53 66.27,42.92 112.99,42.92 32.86,0 61.7,-8.72 86.38,-25.53 24.68,-17.09 43.72,-40.2 57.01,-69.27 13.01,-29.02 19.81,-61.34 19.81,-96.13 0,-33.4 -7.34,-63.27 -21.42,-89.64 -14.44,-26.37 -34.79,-46.72 -61.39,-61.65 -26.6,-14.93 -57.54,-22.27 -93.18,-22.27l-105.65 0 24.68 -171.12c77.94,0 134.72,-12.75 170.53,-38.59 35.87,-25.81 53.8,-63.27 53.8,-112.68 0,-38.59 -12.21,-69.53 -36.71,-92.64 -24.45,-23.12 -57.31,-34.48 -98.59,-34.48 -42.61,0 -77.66,13.85 -105.11,41.54 -27.68,27.99 -44.26,65.73 -50.21,113.52l-214.84 -36.66c21.19,-101.85 64.11,-178.18 128.2,-228.69 64.11,-50.75 146.7,-76.04 247.39,-76.04 71.71,0 134.41,12.75 188.77,38.59 54.06,25.81 95.59,61.39 124.66,106.73 29.32,45.38 44,96.98 44,154.83 0,53.52 -15.21,101.85 -45.38,145 -30.45,43.2 -77.17,77.17 -140.13,101.59 71.14,14.08 126.3,45.87 165.96,95.05 39.38,49.18 59.24,108.34 59.24,177.87l0.1 0.03z"/>
  <path class="fil0" d="M5117.67 1856.79c-13.34,-6.41 -26.4,-13.34 -39.07,-20.88l-9.21 -5.62c11.72,-9.62 23.22,-20.06 34.35,-31.35 4,21.47 8.62,40.69 13.96,57.85l-0.03 0z"/>
  <path class="fil0" d="M5302.16 1701.04c25.37,5.88 52.62,8.83 81.69,8.83 49.18,0 98.05,-7.29 145.85,-22.27 48.1,-14.93 89.33,-36.35 123.84,-64.34l0 -159.93 -272.15 0 0 -197.44 506.79 0 0 464.69c-35.58,33.94 -80.12,64.88 -133.64,92.33 -53.52,27.68 -112.45,49.41 -176.25,65.19 -63.8,16.01 -128.46,23.91 -193.65,23.91 -60.75,0 -117.12,-6.59 -169.07,-19.81l135.74 0c-21.42,-44.54 -34.74,-80.4 -40.74,-107.57 -4.82,-22.91 -7.75,-50.75 -8.47,-83.51l0.05 -0.08z"/>
  <path class="fil1" d="M0.08 1315.24c0,-123.04 23.12,-230.31 69.53,-321.87 46.46,-91.51 112.73,-162.4 198.52,-212.37 86.07,-50.26 186.36,-75.25 300.91,-75.25 114.91,0 215.38,24.99 301.45,74.71 85.84,49.98 152.06,120.63 198.83,211.58 46.72,91.26 70.06,197.49 70.06,318.3 0,117.86 -22.81,222.12 -68.73,313.15 -45.87,90.95 -111.6,161.86 -196.9,212.42 -85.53,50.75 -186.05,76.04 -301.76,76.04 -115.7,0 -216.76,-24.99 -303.09,-75.25 -86.38,-49.98 -152.9,-120.27 -199.37,-210.76 -46.41,-90.41 -69.53,-193.95 -69.53,-310.71l0.08 0zm569.03 -407.4c-67.11,0 -124.97,17.09 -174.1,51.28 -48.87,34.25 -86.38,81.51 -112.45,142.05 -26.07,60.55 -39.07,129.53 -39.07,207.78 0,77.94 12.75,146.93 38.28,207.5 25.53,60.55 62.73,107.8 112.14,142.05 49.41,34.25 108.11,51.28 176.56,51.28 67.34,0 125.74,-16.86 174.63,-50.75 49.18,-33.94 86.61,-81.51 112.45,-142.59 25.53,-60.85 38.59,-131.17 38.59,-210.76 0,-76.32 -13.01,-144.77 -38.59,-205.09 -25.81,-60.01 -63.27,-107.26 -112.45,-141.51 -48.87,-34.25 -107.57,-51.28 -175.99,-51.28l0 0.03zm1096.43 -30.94c-22.27,0 -39.92,3.49 -52.67,11.13 -12.52,7.34 -22.04,20.11 -27.68,38.05 -5.95,18.19 -8.72,43.46 -8.72,76.58l0 45.38 162.96 0 0 177.33 -162.96 0 0 666.78 -223.79 0 0 -666.78 -123.27 0 0 -177.33 123.27 0 0 -51.87c0,-57.31 6.8,-106.73 20.34,-148.26 13.55,-41.84 40.46,-75.79 80.4,-102.39 39.92,-26.37 97.77,-39.66 172.99,-39.66 27.68,0 60.01,2.72 97.52,7.88 37.51,5.41 67.11,10.88 88.84,16.86l-42.38 166.19c-17.93,-6.52 -36.35,-11.39 -55.67,-14.62 -19.01,-3.54 -35.28,-5.18 -49.18,-5.18l0 -0.08zm197.21 55.67l0 -206.96 223.51 0 0 206.96 -223.51 0zm0 959.56l0 -844.11 223.51 0 0 844.11 -223.51 0zm798.24 -684.94c-57.85,0 -102.13,23.12 -132.79,69.53 -30.71,46.41 -46.18,111.06 -46.18,193.65 0,77.4 15.47,139.9 46.18,187.39 30.71,47.49 76.32,71.14 136.87,71.14 41.84,0 76.27,-13.85 103.78,-41.54 27.45,-27.99 45.38,-67.91 53.75,-119.78l219.45 38.05c-23.35,104.01 -67.11,181.13 -131.46,231.15 -64.65,50.26 -150.19,75.25 -256.68,75.25 -86.61,0 -159.93,-19.32 -220.02,-57.6 -60.32,-38.59 -105.65,-90.95 -135.79,-157.52 -30.14,-66.52 -45.38,-142.31 -45.38,-227.36 0,-87.41 15.78,-164.27 47,-230.61 31.25,-66.27 77.4,-117.86 138.51,-154.83 60.8,-36.94 134.72,-55.39 221.1,-55.39 96.67,0 176.79,22.27 240.36,66.81 63.57,44.54 107.03,112.99 130.38,205.32l-218.63 39.92c-8.98,-43.41 -26.37,-76.86 -52.18,-99.39 -25.81,-22.81 -58.39,-34.25 -98.31,-34.25l0.05 0.08zm543.48 684.94l0 -844.11 223.51 0 0 844.11 -223.51 0zm973.95 -527.42c0,-54.31 -10.06,-95.05 -30.14,-123.04 -20.11,-27.99 -53.75,-41.84 -101,-41.84 -51.34,0 -93.44,18.47 -125.99,55.44 -32.61,36.66 -48.64,93.18 -48.33,168.91l0 467.95 -223.51 0 0 -844.11 208.58 0 0 110.57c30.14,-42.38 67.34,-74.71 111.37,-96.67 44,-21.99 92.64,-33.12 145.57,-33.12 92.87,0 164.04,24.99 213.22,74.4 49.41,49.72 74.17,119.25 74.17,208.88l0 580.14 -223.79 0 0 -527.42 -0.13 -0.1zm1173.03 527.42l-220.56 0c-11.13,-24.45 -20.11,-55.44 -27.14,-93.18 -74.71,75.48 -162.17,112.99 -262.38,112.99 -55.13,0 -103.78,-10.6 -145.57,-31.79 -42.07,-21.19 -74.4,-51.05 -97.21,-89.64 -22.81,-38.28 -34.25,-82.28 -34.25,-131.46 0,-74.94 24.45,-134.46 73.37,-178.48 48.64,-44 124.12,-73.86 225.97,-89.87 101.85,-15.78 173.3,-31.25 214.84,-46.18l0 -15.78c0,-49.41 -12.21,-83.12 -36.35,-101.59 -24.14,-18.19 -59.78,-27.45 -107.03,-27.45 -36.94,0 -68.14,8.41 -92.87,25.53 -24.99,16.86 -44,43.77 -56.47,80.4l-203.7 -30.94c22.27,-85 63.57,-147.24 124.12,-186.59 60.32,-39.66 141.23,-59.47 242.52,-59.47 82.28,0 149.11,10.6 200.98,31.48 51.64,20.88 89.87,54.31 114.91,99.93 24.99,45.61 37.51,105.11 37.51,179.02l0 344.37c0,40.46 3,74.17 8.72,101 5.95,27.14 19.32,63.01 40.74,107.57l-0.15 0.13zm-444.07 -362.05c-79.58,16.01 -119.5,54.59 -119.5,116.24 0,34.48 9.75,60.85 29.61,79.58 19.55,18.47 47.8,27.68 84.2,27.68 36.66,0 70.37,-9.21 101,-27.68 21.19,-12.75 37.2,-26.07 47.49,-40.2 10.34,-14.08 17.7,-33.12 21.73,-57.01 4.39,-23.91 6.52,-57.31 6.52,-100.23l0 -40.51c-39.38,14.14 -96.44,28.25 -171.07,42.07l0.03 0.05z"/>
  <path class="fil2" d="M5122.19 702.21c13.75,28.99 97.21,157.42 121.99,201.37 1.33,2.39 2.98,5.52 3.77,6.7l5.36 5.9 39.59 66.22c52,87.18 115.09,187.23 177.1,291.03 4,6.72 7.16,12.21 11.11,18.14 3.28,4.95 8.8,12.67 10.44,18.83 31.09,0 43,-3.98 73.89,11.78 64.29,32.81 90.61,117.94 63.21,185.92 -22.06,54.7 -74.37,93.23 -136.56,81.79 -58.08,-10.67 -98.95,-65.7 -103.03,-124.79 -4.82,-70.37 20.63,-71.94 11.16,-88.28l-95.54 -155.42c-6.21,-10.08 -11.31,-18.6 -17.52,-28.45 -6.18,-9.77 -11.26,-18.73 -17.55,-28.45 -6.05,-9.39 -10.65,-17.8 -16.7,-27.17 -6.36,-9.8 -11.03,-18.47 -17.57,-28.43 -37.1,-62.42 -37.69,-60.6 -80.74,-130.82 -5.11,-12.16 -54.72,-90.51 -65.29,-107.73 -9.72,-15.83 -60.42,-101.75 -67.99,-107.44l-46.38 -77.02c-8.08,-12.83 -15.16,-24.65 -22.96,-37.61l-35.02 -56.95c-4.21,-7.08 -7.62,-11.9 -12.01,-19.34l-189.59 -307.81c-4.31,-4.05 -3.05,-2.72 -10.36,-4.26 -5.62,-1.21 -9.72,-1.85 -14.16,-2.57l-132.59 -24.14c-102.29,-20.83 -212.19,-37.07 -314.53,-57.47 -35.12,-7 -70.58,-13.37 -106.14,-19.27l-406.74 -73.94c-10.39,-1.87 -6.95,1.03 -11.52,-5.21 13.96,0 205.16,-34.71 225.12,-38.17 25.76,-4.49 27.45,-7.21 55.11,-1.72 18.73,3.72 37.23,7.03 56.06,10.83l444.12 84.64c38.3,7.75 75.71,14.11 112.52,21.22l164.83 31.61c40.71,6.75 32.71,3 44.26,22.63l294.44 482.98c2.62,4.16 3.59,6.75 6.41,10.88z"/>
  <path class="fil3" d="M3420.45 727.3c59.73,0 106.75,-10.24 155.32,-36.97 37.02,-20.37 73.66,-69.5 82.92,-109.32 7.7,5.13 75.86,92.9 89.23,109.32l87.97 110.55c6.82,11.47 2.54,40.23 2.54,55.98l-56.01 15.06c-87.15,22.01 -268.05,54 -360.79,67.65 -73.07,10.75 -76.63,9.34 -151.67,-3.28l-251.06 -43.61c-162.4,-27.01 -331.95,-62.5 -493.81,-91.36l-390.22 -73.73c-16.78,-2.69 -15.91,-0.28 -19.52,-5.57 -3.59,-5.26 -9.44,-75.79 -9.44,-88.77 0,-27.22 3.98,-53.34 11.29,-78.56 3.18,-10.98 4.9,-19.68 11.7,-19.68l562.18 0c14.78,0 258.4,86.51 301.19,100.08 15.29,4.85 29.2,9.65 44.51,13.98 122.04,34.63 254.01,78.22 383.67,78.22z"/>
  <path class="fil3" d="M4701.57 819.25l-300.96 2.1c-36.15,0 -64.98,2.08 -100.31,2.08 -69.32,0 -132.64,2.1 -200.62,2.1 -68.45,0 -133.36,4.16 -200.65,4.16 11.31,-9.83 25.71,-14.39 -28.58,-46.64 -27.32,-16.24 -54.34,-32.58 -78.63,-53 -4.54,-3.82 -5.88,-4.08 -10.42,-8.41 -111.24,-106.55 153.32,-195.62 215.63,-218.2l170.99 -63.06c8.59,-3.36 15.62,-6.13 24.37,-9.08 41.89,-14.11 219.94,-83.15 244.98,-89.41 167.43,-41.84 218.63,54.24 234.59,212.3 1.36,13.39 1.23,25.32 3,38.79 7,53.18 8.13,137.54 19.86,189.13 2.46,10.78 6.75,25.48 6.75,37.15z"/>
  <path class="fil3" d="M5372.43 499.51c-16.14,-1.36 -98.57,-41.97 -113.55,-49.46 -41.82,-20.91 -91.54,-48.87 -128.56,-76.25 -33.27,-24.6 -37.41,-27.37 -66.68,-56.65 -15.26,-15.26 -24.71,-26.25 -36.48,-45.02 -24.89,-39.61 -29.35,-85.87 -1.13,-125.27 11.11,-15.5 24.09,-26.66 38.69,-38.66 7.47,-6.18 13.75,-9.98 22.76,-14.85 20.42,-11.06 12.6,-9.21 36.84,-19.57 74.66,-31.89 108.32,-41.69 190.46,-58.24 21.83,-4.41 79.94,-15.52 99.44,-15.52l-41.79 499.51z"/>
  <path class="fil2" d="M2522.93 1471.92c0,-32.71 5.62,-58.98 22.91,-84.07 60.37,-87.59 181.46,-66.45 217.94,21.5 45.92,110.68 -52.11,224.51 -162.81,180.61 -42.28,-16.78 -78.04,-67.86 -78.04,-118.04z"/>
  <polygon class="fil2" points="3002.45,1061.69 3004.56,1061.69 3002.81,1064.13 "/>
  <polygon class="fil2" points="5175.96,1059.58 5171.91,1062 "/>
  <polygon class="fil2" points="2998.3,1814.05 3002.35,1811.64 "/>
  <path class="fil0" d="M5116.54 1048.86c-46.26,-13.39 -102.18,-20.16 -167.96,-20.16 -28.32,0 -66.4,3 -91.54,6.11 72.84,-241.59 259.73,-325.36 498.35,-317.89 95.59,2.98 223.51,40.77 306.96,79.33 53.08,24.58 131.71,72.91 176.07,114.81l31.89 29.84 -42.84 92.41c-46.54,-30.56 -97.1,-55 -149.24,-70.68 -156.06,-47 -461.56,-59.11 -561.69,86.25z"/>
 </g>
</svg>
