<?xml version="1.0" encoding="UTF-8"?>
<!DOCTYPE svg PUBLIC "-//W3C//DTD SVG 1.1//EN" "http://www.w3.org/Graphics/SVG/1.1/DTD/svg11.dtd">
<!-- Creator: CorelDRAW 2021 (64 Bit) -->
<svg xmlns="http://www.w3.org/2000/svg" xml:space="preserve" width="26.3758mm" height="4.7015mm" version="1.1" style="shape-rendering:geometricPrecision; text-rendering:geometricPrecision; image-rendering:optimizeQuality; fill-rule:evenodd; clip-rule:evenodd"
viewBox="0 0 1373.29 244.79"
 xmlns:xlink="http://www.w3.org/1999/xlink"
 xmlns:xodm="http://www.corel.com/coreldraw/odm/2003">
 <defs>
  <style type="text/css">
   <![CDATA[
    .fil1 {fill:#FEFEFE;fill-rule:nonzero}
    .fil0 {fill:#FCA311;fill-rule:nonzero}
   ]]>
  </style>
 </defs>
 <g id="Camada_x0020_1">
  <metadata id="CorelCorpID_0Corel-Layer"/>
  <path class="fil0" d="M1373.29 170.38c0,15.49 -3.25,28.83 -9.76,40.02 -6.5,11.19 -15.82,19.73 -27.89,25.63 -12.02,5.84 -26.29,8.76 -42.77,8.76 -14.11,0 -26.79,-2.54 -38.09,-7.55 -11.3,-5.07 -20.56,-12.62 -27.78,-22.65 -7.22,-9.98 -11.79,-22.21 -13.72,-36.65l45.53 -5.29c1.38,11.3 5.02,19.84 10.8,25.68 5.85,5.79 13.45,8.71 22.93,8.71 6.67,0 12.52,-1.77 17.53,-5.18 5.01,-3.47 8.87,-8.16 11.57,-14.06 2.64,-5.89 4.02,-12.45 4.02,-19.51 0,-6.78 -1.49,-12.84 -4.35,-18.19 -2.93,-5.35 -7.06,-9.48 -12.46,-12.51 -5.4,-3.03 -11.68,-4.52 -18.91,-4.52l-21.44 0 5.01 -34.73c15.82,0 27.34,-2.59 34.61,-7.83 7.28,-5.24 10.92,-12.84 10.92,-22.87 0,-7.83 -2.48,-14.11 -7.45,-18.8 -4.96,-4.69 -11.63,-7 -20.01,-7 -8.65,0 -15.76,2.81 -21.33,8.43 -5.62,5.68 -8.98,13.34 -10.19,23.04l-43.6 -7.44c4.3,-20.67 13.01,-36.16 26.02,-46.41 13.01,-10.3 29.77,-15.43 50.21,-15.43 14.55,0 27.28,2.59 38.31,7.83 10.97,5.24 19.4,12.46 25.3,21.66 5.95,9.21 8.93,19.68 8.93,31.42 0,10.86 -3.09,20.67 -9.21,29.43 -6.18,8.77 -15.66,15.66 -28.44,20.62 14.44,2.86 25.63,9.31 33.68,19.29 7.99,9.98 12.02,21.99 12.02,36.1z"/>
  <path class="fil0" d="M1038.6 233.6c-2.71,-1.3 -5.36,-2.71 -7.93,-4.24l-1.87 -1.14c2.38,-1.95 4.71,-4.07 6.97,-6.36 0.81,4.36 1.75,8.26 2.83,11.74z"/>
  <path class="fil0" d="M1076.04 201.99c5.15,1.19 10.68,1.79 16.58,1.79 9.98,0 19.9,-1.48 29.6,-4.52 9.76,-3.03 18.13,-7.38 25.13,-13.06l0 -32.46 -55.23 0 0 -40.07 102.85 0 0 94.31c-7.22,6.89 -16.26,13.17 -27.12,18.74 -10.86,5.62 -22.82,10.03 -35.77,13.23 -12.95,3.25 -26.07,4.85 -39.3,4.85 -12.33,0 -23.77,-1.34 -34.31,-4.02l27.55 0c-4.35,-9.04 -7.05,-16.32 -8.27,-21.83 -0.98,-4.65 -1.57,-10.3 -1.72,-16.95z"/>
  <path class="fil0" d="M1093.11 41.01c-20.56,0 -36.71,6.61 -48.4,19.84 -2.35,2.67 -4.46,5.6 -6.34,8.78 -9.39,-2.72 -20.74,-4.09 -34.09,-4.09 -5.75,0 -11.19,0.31 -16.29,0.94 1.28,-3.06 2.68,-6.03 4.19,-8.94 9.54,-18.35 23.1,-32.52 40.51,-42.55 17.42,-9.98 37.59,-15 60.41,-15 27.01,0 48.62,5.79 64.88,17.42 16.26,11.63 27.61,28.99 34.12,52.03l-47.68 8.88c-3.42,-12.18 -9.48,-21.45 -18.08,-27.78 -8.6,-6.34 -19.68,-9.53 -33.24,-9.53z"/>
  <path class="fil1" d="M-0 123.69c0,-24.97 4.69,-46.74 14.11,-65.32 9.43,-18.57 22.88,-32.96 40.29,-43.1 17.47,-10.2 37.82,-15.27 61.07,-15.27 23.32,0 43.71,5.07 61.18,15.16 17.42,10.14 30.86,24.48 40.35,42.94 9.48,18.52 14.22,40.08 14.22,64.6 0,23.92 -4.63,45.08 -13.95,63.55 -9.31,18.46 -22.65,32.85 -39.96,43.11 -17.36,10.3 -37.76,15.43 -61.24,15.43 -23.48,0 -43.99,-5.07 -61.51,-15.27 -17.53,-10.14 -31.03,-24.41 -40.46,-42.77 -9.42,-18.35 -14.11,-39.36 -14.11,-63.06zm115.48 -82.68c-13.62,0 -25.36,3.47 -35.33,10.41 -9.92,6.95 -17.53,16.54 -22.82,28.83 -5.29,12.29 -7.93,26.29 -7.93,42.17 0,15.82 2.59,29.82 7.77,42.11 5.18,12.29 12.73,21.88 22.76,28.83 10.03,6.95 21.94,10.41 35.83,10.41 13.67,0 25.52,-3.42 35.44,-10.3 9.98,-6.89 17.58,-16.54 22.82,-28.94 5.18,-12.35 7.83,-26.62 7.83,-42.77 0,-15.49 -2.64,-29.38 -7.83,-41.62 -5.24,-12.18 -12.84,-21.77 -22.82,-28.72 -9.92,-6.95 -21.83,-10.41 -35.72,-10.41zm222.52 -6.28c-4.52,0 -8.1,0.71 -10.69,2.26 -2.54,1.49 -4.47,4.08 -5.62,7.72 -1.21,3.69 -1.77,8.82 -1.77,15.54l0 9.21 33.07 0 0 35.99 -33.07 0 0 135.32 -45.42 0 0 -135.32 -25.02 0 0 -35.99 25.02 0 0 -10.53c0,-11.63 1.38,-21.66 4.13,-30.09 2.75,-8.49 8.21,-15.38 16.32,-20.78 8.1,-5.35 19.84,-8.05 35.11,-8.05 5.62,0 12.18,0.55 19.79,1.6 7.61,1.1 13.62,2.21 18.03,3.42l-8.6 33.73c-3.64,-1.32 -7.38,-2.31 -11.3,-2.97 -3.86,-0.72 -7.16,-1.05 -9.98,-1.05zm40.02 11.3l0 -42 45.36 0 0 42 -45.36 0zm0 194.74l0 -171.31 45.36 0 0 171.31 -45.36 0zm162 -139.01c-11.74,0 -20.73,4.69 -26.95,14.11 -6.23,9.42 -9.37,22.54 -9.37,39.3 0,15.71 3.14,28.39 9.37,38.03 6.23,9.64 15.49,14.44 27.78,14.44 8.49,0 15.48,-2.81 21.06,-8.43 5.57,-5.68 9.21,-13.78 10.91,-24.31l44.54 7.72c-4.74,21.11 -13.62,36.76 -26.68,46.91 -13.12,10.2 -30.48,15.27 -52.09,15.27 -17.58,0 -32.46,-3.92 -44.65,-11.69 -12.24,-7.83 -21.44,-18.46 -27.56,-31.97 -6.12,-13.5 -9.21,-28.88 -9.21,-46.14 0,-17.74 3.2,-33.34 9.54,-46.8 6.34,-13.45 15.71,-23.92 28.11,-31.42 12.34,-7.5 27.34,-11.24 44.87,-11.24 19.62,0 35.88,4.52 48.78,13.56 12.9,9.04 21.72,22.93 26.46,41.67l-44.37 8.1c-1.82,-8.81 -5.35,-15.6 -10.59,-20.17 -5.24,-4.63 -11.85,-6.95 -19.95,-6.95zm110.3 -55.73l0 -42 45.36 0 0 42 -45.36 0zm0 194.74l0 -171.31 45.36 0 0 171.31 -45.36 0zm197.66 -107.04c0,-11.02 -2.04,-19.29 -6.12,-24.97 -4.08,-5.68 -10.91,-8.49 -20.5,-8.49 -10.42,0 -18.96,3.75 -25.57,11.25 -6.62,7.44 -9.87,18.91 -9.81,34.28l0 94.97 -45.36 0 0 -171.31 42.33 0 0 22.44c6.12,-8.6 13.67,-15.16 22.6,-19.62 8.93,-4.46 18.8,-6.72 29.54,-6.72 18.85,0 33.29,5.07 43.27,15.1 10.03,10.09 15.05,24.2 15.05,42.39l0 117.74 -45.42 0 0 -107.04zm238.06 107.04l-44.76 0c-2.26,-4.96 -4.08,-11.25 -5.51,-18.91 -15.16,15.32 -32.91,22.93 -53.25,22.93 -11.19,0 -21.06,-2.15 -29.54,-6.45 -8.54,-4.3 -15.1,-10.36 -19.73,-18.19 -4.63,-7.77 -6.95,-16.7 -6.95,-26.68 0,-15.21 4.96,-27.29 14.89,-36.22 9.87,-8.93 25.19,-14.99 45.86,-18.24 20.67,-3.2 35.17,-6.34 43.6,-9.37l0 -3.2c0,-10.03 -2.48,-16.87 -7.38,-20.62 -4.9,-3.69 -12.13,-5.57 -21.72,-5.57 -7.5,0 -13.83,1.71 -18.85,5.18 -5.07,3.42 -8.93,8.88 -11.46,16.32l-41.34 -6.28c4.52,-17.25 12.9,-29.88 25.19,-37.87 12.24,-8.05 28.66,-12.07 49.22,-12.07 16.7,0 30.26,2.15 40.79,6.39 10.48,4.24 18.24,11.02 23.32,20.28 5.07,9.26 7.61,21.33 7.61,36.33l0 69.89c0,8.21 0.61,15.05 1.77,20.5 1.21,5.51 3.92,12.79 8.27,21.83zm-90.12 -73.48c-16.15,3.25 -24.25,11.08 -24.25,23.59 0,7 1.98,12.35 6.01,16.15 3.97,3.75 9.7,5.62 17.09,5.62 7.44,0 14.28,-1.87 20.5,-5.62 4.3,-2.59 7.55,-5.29 9.64,-8.16 2.1,-2.86 3.59,-6.72 4.41,-11.57 0.89,-4.85 1.32,-11.63 1.32,-20.34l0 -8.22c-7.99,2.87 -19.57,5.73 -34.72,8.54z"/>
 </g>
</svg>
